<svg width="52" height="11" viewBox="0 0 52 11" fill="none" xmlns="http://www.w3.org/2000/svg">
<circle cx="46.2857" cy="5.14286" r="5.14286" fill="#DDE0E4"/>
<path fill-rule="evenodd" clip-rule="evenodd" d="M5.18201 10.2856C5.16897 10.2857 5.15592 10.2857 5.14286 10.2857C5.1298 10.2857 5.11674 10.2857 5.10371 10.2856H4.76359V10.2719C2.10036 10.0778 0 7.85562 0 5.14286C0 2.4301 2.10036 0.207902 4.76359 0.0137726V0H5.14286H25.4291V0.00777385C25.5235 0.00261378 25.6186 0 25.7143 0C28.5546 0 30.8571 2.30254 30.8571 5.14286C30.8571 7.98318 28.5546 10.2857 25.7143 10.2857C25.6186 10.2857 25.5235 10.2831 25.4291 10.2779V10.2856H5.18201Z" fill="#25401D"/>
</svg>
